# xmcd
#
# Track frame offsets: 
#        150
#        13972
#        25247
#        39987
#        52458
#        66925
#        78371
#        92250
#        103278
#        117999
#        129956
#        141191
#
# Disc length: 2037 seconds
#
# Revision: 0
# Processed by: cddbd v1.5.2PL0 Copyright (c) Steve Scherf et al.
# Submitted via: ExactAudioCopy v1.0b1
#
DISCID=a407f30c
DTITLE=Donna Fargo - The Best Of Donna Fargo
DYEAR=1976
DGENRE=Country
TTITLE0=Don't Be Angry
TTITLE1=The Happiest Girl In The Whole U.S.A.
TTITLE2=You Can't Be A Beacon (If Your Light Don't Shine)
TTITLE3=Funny Face
TTITLE4=How Close You Came (To Being Gone)
TTITLE5=It Do Feel Good
TTITLE6=A Song I Can Sing
TTITLE7=Superman
TTITLE8=You Were Always There
TTITLE9=I'd Love You To Want Me
TTITLE10=Little Girl Gone
TTITLE11=U.S. Of A.
EXTD=
EXTT0=
EXTT1=
EXTT2=
EXTT3=
EXTT4=
EXTT5=
EXTT6=
EXTT7=
EXTT8=
EXTT9=
EXTT10=
EXTT11=
PLAYORDER=
